<?xml version="1.0" ?><svg fill="red" height="16px" id="SVGRoot" version="1.1" viewBox="0 0 16 16" width="16px" xmlns="http://www.w3.org/2000/svg" xmlns:cc="http://creativecommons.org/ns#" xmlns:dc="http://purl.org/dc/elements/1.1/" xmlns:inkscape="http://www.inkscape.org/namespaces/inkscape" xmlns:rdf="http://www.w3.org/1999/02/22-rdf-syntax-ns#" xmlns:sodipodi="http://sodipodi.sourceforge.net/DTD/sodipodi-0.dtd" xmlns:svg="http://www.w3.org/2000/svg"><defs id="defs4023"/><g id="layer1"><path d="M 8.1171875 0.30273438 C 7.8256003 0.30091408 7.5297718 0.41090014 7.2988281 0.6328125 L 5.6152344 2.25 L 3.25 2.25 C 2.62675 2.25 2.125 2.7656875 2.125 3.40625 L 2.125 5.6035156 L 0.5390625 7.1269531 C 0.07717515 7.5707779 0.054498665 8.2908305 0.48632812 8.7402344 L 2.125 10.445312 L 2.125 12.78125 C 2.125 13.421812 2.62675 13.9375 3.25 13.9375 L 5.4804688 13.9375 L 7.0253906 15.544922 C 7.4572201 15.994326 8.1767845 15.998477 8.6386719 15.554688 L 10.322266 13.9375 L 12.6875 13.9375 C 13.31075 13.9375 13.8125 13.421812 13.8125 12.78125 L 13.8125 10.583984 L 15.398438 9.0605469 C 15.860325 8.6167221 15.883005 7.8966695 15.451172 7.4472656 L 13.8125 5.7421875 L 13.8125 3.40625 C 13.8125 2.7656875 13.31075 2.25 12.6875 2.25 L 10.457031 2.25 L 8.9121094 0.64257812 C 8.6961946 0.41787617 8.4087747 0.30455466 8.1171875 0.30273438 z M 7.96875 3.71875 A 4.375 4.375 0 0 1 12.34375 8.09375 A 4.375 4.375 0 0 1 7.96875 12.46875 A 4.375 4.375 0 0 1 3.59375 8.09375 A 4.375 4.375 0 0 1 7.96875 3.71875 z " id="rect4039" style="fill:#fff;stroke:none"/><circle cx="7.968751" cy="8.0937424" id="path4052" r="2.90625" style="fill:#fff;stroke:none"/></g></svg>